<svg xmlns="http://www.w3.org/2000/svg" width="256" height="256"><path fill="#1976D2" fill-opacity=".016" fill-rule="evenodd" d="M0 128.004v128.004l128.25-.254 128.25-.254.254-127.75L257.008 0H0zm.485.496c0 70.4.119 99.053.265 63.672s.146-92.98 0-128S.485 58.1.485 128.5"/><path fill="#1976D2" fill-opacity=".35" fill-rule="evenodd" d="M0 128.004v128.004l128.25-.254 128.25-.254.254-127.75L257.008 0H0zm.485.496c0 70.4.119 99.053.265 63.672s.146-92.98 0-128S.485 58.1.485 128.5M117.713 16.62c-.392.392-.713 6.038-.713 12.547V41H85v12h32v92h18V53h29V41h-29V16.272l-8.287-.183c-4.557-.1-8.607.139-9 .531M37.25 178.65l-2.25.489V228h9v-17l5.75-.022c12.439-.047 19.233-7.028 17.889-18.379-1.17-9.876-6.696-13.891-19.575-14.219-4.71-.12-9.577.001-10.814.27m101.417 1.017c-1.105 1.105-.75 5.85.533 7.133 1.327 1.327 5.657 1.58 7.45.435 1.245-.796 1.654-2.462 1.468-5.985-.103-1.969-.659-2.25-4.451-2.25-2.384 0-4.634.3-5 .667M44 195v9h4.444c6.586 0 10.088-3.31 9.96-9.415-.137-6.54-2.294-8.585-9.059-8.585H44zm67.512-1.659c-1.385 2.114-1.389 2.666-.036 5.261 1.126 2.158 1.513 6.28 1.518 16.148L113 228h8v-11.365c0-9.984.252-11.686 2.073-14 1.502-1.91 2.994-2.635 5.422-2.635 2.954 0 3.489-.422 4.527-3.567.648-1.962.929-3.815.626-4.119s-2.428-.525-4.72-.494c-2.907.041-4.931.758-6.686 2.369-1.771 1.626-2.651 1.934-2.97 1.04-.249-.699-1.749-1.941-3.333-2.76-2.722-1.408-2.964-1.36-4.427.872m59.223-.461c-3.175 1.619-3.854 1.682-4.877.449-.687-.828-2.487-1.304-4.273-1.13l-3.085.301-.273 17.75-.273 17.75H167v-12.345c0-13.395.71-15.277 5.992-15.882 3.881-.444 4.977 3.169 4.993 16.477L178 228h8v-25.029l3.25-1.982c3.729-2.273 3.746-2.276 5.75-1.012 1.178.743 1.571 3.743 1.83 13.992.299 11.862.512 13.143 2.34 14.122 1.458.78 2.795.752 4.859-.103 2.501-1.036 2.734-1.481 1.91-3.649-.517-1.358-.939-7.637-.939-13.954 0-13.277-1.139-16.616-6.244-18.3-3.645-1.204-7.887-.356-12.129 2.424-1.683 1.103-2.627 1.302-2.627.555 0-1.185-5.848-4.064-8.256-4.064-.727 0-2.981.846-5.009 1.88m-97.812-.13c-.043.412-.01 6.581.073 13.708.208 17.816 2.218 22.042 10.486 22.042 2.296 0 5.844-.899 7.884-1.998 2.552-1.374 3.932-1.655 4.422-.899.392.603 1.801 1.672 3.133 2.374 2.101 1.108 2.603 1.028 3.798-.6.799-1.09 1.088-2.716.69-3.877-.378-1.1-.891-8.637-1.14-16.75l-.452-14.75H94.06l-.28 12.75-.28 12.75-3.739 2c-2.905 1.554-4.132 1.753-5.5.893-1.487-.934-1.799-2.876-2.007-12.5-.338-15.676-.41-15.893-5.273-15.893-2.19 0-4.016.338-4.058.75M136 195.094c0 2.252.544 3.235 2 3.616 1.883.493 2 1.364 2 14.907V228h9v-15.777c0-19.073-.458-20.223-8.057-20.223-4.859 0-4.943.053-4.943 3.094"/><path fill="#1976D2" fill-opacity=".657" fill-rule="evenodd" d="M0 128.004v128.004l128.25-.254 128.25-.254.254-127.75L257.008 0H0zm.485.496c0 70.4.119 99.053.265 63.672s.146-92.98 0-128S.485 58.1.485 128.5M117 28.5V41H83.905l.297 6.25.298 6.25 16.25.275 16.25.275V146h19V54.055l14.25-.278 14.25-.277.298-6.25.297-6.25H136V16h-19zM35.667 178.667c-.367.366-.667 11.866-.667 25.554v24.889l4.75-.305 4.75-.305.288-8.115.289-8.114 5.956-.54C62.357 210.704 68 204.973 68 194.5c0-4.791-.513-6.955-2.25-9.501-3.786-5.546-7.796-6.999-19.318-6.999-5.554 0-10.399.3-10.765.667m103.583-.005c-1.525.616-1.677 7.956-.184 8.879 1.902 1.175 8.168.697 9.048-.691 1.249-1.971 1.073-6.263-.314-7.65-1.192-1.192-6.156-1.504-8.55-.538M45 194.5v8.5h4.943c5.88 0 8.057-2.234 8.057-8.268 0-5.326-3.493-8.732-8.955-8.732H45zm27.822-2.46c-1.36.793-1.502 1.59-.75 4.213.511 1.778.928 8.097.928 14.04C73 225.272 75.132 229 83.699 229c2.107 0 5.414-.848 7.348-1.885 3.447-1.847 3.565-1.847 5.846 0 2.966 2.401 4.354 2.375 6.616-.125 1.497-1.654 1.613-2.405.656-4.25-.687-1.323-1.266-8.173-1.414-16.74l-.251-14.5h-9l-.259 12.5c-.235 11.305-.46 12.667-2.361 14.25-1.156.963-3.345 1.75-4.866 1.75-3.466 0-4.014-2.244-4.014-16.425 0-6.581-.424-10.599-1.2-11.375-1.436-1.436-5.645-1.521-7.978-.16m38.136 1.038c-.633 1.183-.764 2.799-.305 3.75.444.92 1.041 8.422 1.327 16.672l.52 15h9l.5-12.71c.44-11.184.74-12.897 2.5-14.262 1.138-.883 3.127-1.354 4.613-1.092 2.054.361 2.857-.075 3.75-2.035.625-1.372 1.137-3.599 1.137-4.948 0-2.169-.435-2.453-3.75-2.449-2.062.002-5.241.912-7.063 2.023l-3.312 2.02-2.572-2.024c-3.27-2.572-4.947-2.557-6.345.055m25.709-1.411c-.367.366-.667 2.114-.667 3.883 0 2.376.523 3.353 2 3.74 1.885.493 2 1.364 2 15.116V229h9v-17c0-15.667-.157-17.157-2-19-1.957-1.957-8.823-2.843-10.333-1.333m22 0c-.367.366-.667 8.941-.667 19.054v18.389l4.75-.305 4.75-.305.278-13.096c.267-12.573.371-13.146 2.619-14.349 1.287-.689 3.187-1.09 4.222-.891 1.721.33 1.905 1.577 2.159 14.652l.278 14.291 4.722-.303 4.722-.304.5-12.965c.489-12.685.556-12.996 3.093-14.417 5.185-2.904 5.907-1.448 5.907 11.916 0 13.517.743 15.966 4.844 15.966 5.431 0 5.746-1.056 5.176-17.334l-.52-14.834-3.266-2.916c-3.969-3.544-9.153-3.872-14.047-.889l-3.312 2.02-2.572-2.024c-3.092-2.432-8.951-2.658-12.08-.466-2.012 1.409-2.434 1.409-4.446 0-2.292-1.606-5.938-2.063-7.11-.89"/><path fill="#1976D2" fill-opacity=".285" fill-rule="evenodd" d="M209.97 2.422c1.994 5.243 8.189 12.562 11.37 13.432 3.162.864 8.325-.501 11.333-2.998 1.982-1.645 1.607-5.452-.923-9.358L229.5.025 219.275.012 209.05 0zM.005 7.633c-.004 6.404.209 7.19 2.091 7.682 6.321 1.653 6.552-4.558.44-11.815L.01.5zM222 2.966c-3.731.932-3.535 5.415.256 5.851 3.111.358 4.552-1.813 3.122-4.701-.639-1.291-1.559-1.604-3.378-1.15m-28.326 2.255c-2.105.558-4.05 1.595-4.323 2.306-.825 2.15 2.505 7.473 4.675 7.473 1.636 0 1.974.684 1.974 4 0 2.2-.338 3.999-.75 3.998s-2.021-2.014-3.575-4.474c-2.648-4.191-6.665-6.496-11.358-6.518-1.49-.007-2.687 3.586-1.718 5.155.498.805.182.969-.998.516-.95-.365-4.678-.104-8.284.58-5.197.985-6.729 1.698-7.391 3.438-.717 1.885-1.355 2.11-4.53 1.594-3.959-.642-6.396 1.21-6.396 4.863 0 2.551 3.941 5.848 6.989 5.848 1.436 0 3.17.559 3.853 1.242 1.643 1.643 3.275-.733 2.915-4.242-.201-1.956.254-2.572 2.095-2.833 1.293-.183 3.431-.062 4.75.269 3.041.763 3.225 4.505.349 7.108-1.393 1.261-1.953 2.826-1.75 4.897.394 4.007 2.838 4.394 7.12 1.128 3.413-2.604 8.05-3.396 9.179-1.569.78 1.263 4.5 1.318 4.5.067 0-.513.86-1.205 1.911-1.539 2.694-.855 5.212-5.088 5.416-9.106.095-1.877.301-3.415.458-3.418.157-.002 1.418.738 2.802 1.645 1.754 1.149 2.833 1.331 3.564.6 1.452-1.452.352-4.326-3.167-8.267C198.517 16.099 198.172 14 201 14c1.1 0 2 .45 2 1s.675 1 1.5 1 1.5.605 1.5 1.345c0 1.659 3.192 4.655 4.96 4.655 2.209 0 .593-7.071-2.922-12.783-2.96-4.812-3.494-5.209-6.874-5.114-2.015.057-5.386.56-7.49 1.118M179 21.775c0 2.524 5.988 10.115 8 10.142.825.011 2.285-1.059 3.244-2.378 1.703-2.343 1.673-2.468-1.327-5.469-1.689-1.688-3.599-3.076-4.244-3.084-.645-.007-2.185-.285-3.423-.616-1.787-.479-2.25-.19-2.25 1.405m-36.163 11.141c-.206 2.154-.028 3.702.395 3.441.422-.261.768.03.768.647 0 .664-1.328.995-3.25.809-2.845-.274-3.327-.749-3.868-3.813-.564-3.191-.631-3.058-.753 1.5l-.134 5 8.014-.327c4.408-.179 7.781-.704 7.496-1.166-.286-.461-.086-1.978.443-3.369.853-2.246.588-2.762-2.361-4.584-4.963-3.067-6.316-2.694-6.75 1.862m103.409 1.238C245.56 34.84 245 37.11 245 39.2c0 4.147-.511 4.484-3.441 2.268-2.371-1.793-6.556-1.932-6.568-.218-.004.688-2.817 2.107-6.25 3.154-12.159 3.708-13.741 4.567-13.74 7.455 0 2.024 1.865 4.346 7.986 9.945l7.985 7.303 3.541-1.68c7.051-3.346 9.504-9.795 5.487-14.427-1.1-1.268-2-2.957-2-3.752 0-1.149.704-1.03 3.427.576 4.965 2.93 11.613 2.34 13.368-1.185.995-1.997 1.029-3.099.147-4.747-.87-1.627-.863-2.323.029-2.874.648-.4 1.031-2.256.853-4.123-.304-3.182-.575-3.414-4.328-3.691-2.249-.165-4.551.251-5.25.95M83.32 47c0 3.575.182 5.038.403 3.25s.222-4.712 0-6.5c-.221-1.788-.403-.325-.403 3.25m81.966-1.5c.008 2.75.202 3.756.432 2.236s.223-3.77-.014-5-.425.014-.418 2.764m61.698 9.019c-1.031 1.243-.934 1.878.533 3.5 2.187 2.416 7.483 2.71 7.483.415 0-4.742-5.215-7.29-8.016-3.915M87.5 54.882c2.289.472 3.061 1.225 3.259 3.181.25 2.484.081 2.563-5.5 2.559-6.87-.004-13.479 1.265-14.486 2.783-.4.602-.482 1.882-.183 2.845.578 1.857-1.046 2.439-2.09.75-.34-.55-2.134-1-3.986-1-2.402 0-3.933.717-5.335 2.5-1.329 1.689-2.955 2.5-5.014 2.5-1.676 0-3.33.457-3.675 1.016-.346.559-1.046.758-1.557.443C47.637 71.657 42 75.145 42 76.748 42 79.488 44.961 85 46.433 85c.845 0 3.005 1.366 4.801 3.035l3.266 3.034-2.25 1.588c-1.238.873-2.25 2.432-2.25 3.465 0 2.341-3.133 2.492-6.46.312C41.038 94.795 39 90.3 39 86.422 39 83.488 36.493 81 33.536 81c-2.409 0-4.169 2.491-2.492 3.527.526.325.956 1.523.956 2.663 0 1.835-.428 2.002-3.742 1.464-2.058-.334-3.896-1.067-4.083-1.63S23.02 86 22.025 86c-2.296 0-3.267 3.67-2.072 7.835.555 1.936.546 3.165-.023 3.165a.93.93 0 0 1-.93-.922c0-1.552-6.907-3.324-9.803-2.515-3.418.956-4.188 1.098-6.947 1.285-2.078.14-2.249.629-2.24 6.402l.01 6.25 4.073 1.711c2.24.941 3.816 2.128 3.501 2.637s.098 1.481.917 2.161S10 115.895 10 116.69c0 .99.63 1.245 2 .81 1.147-.364 2-.18 2 .433 0 1.281 1.015 1.343 2.859.175 1.806-1.144.571-9.108-1.412-9.108-.757 0-1.895-.968-2.528-2.151-1.143-2.136-1.129-2.135 2.044.125 1.758 1.251 3.443 2.92 3.745 3.708s1.13 1.21 1.838.939c.709-.272 1.544.171 1.856.985.414 1.079 1.05 1.222 2.344.53.976-.523 3.003-.715 4.504-.428 2.204.421 2.898.067 3.602-1.838.52-1.403.477-3.497-.105-5.166-1.22-3.499-.851-3.873 2.819-2.859 1.614.447 4.722.773 6.908.727 3.13-.067 4.223-.586 5.15-2.445l1.177-2.361 1.714 2.617c2.167 3.307 3.714 3.297 7.059-.048 2.389-2.389 2.604-3.181 2.077-7.634-.403-3.4-1.23-5.418-2.62-6.392-2.279-1.596-2.675-3.92-.781-4.574 1.465-.506 5.75 1.241 5.75 2.344 0 .417 1.621 1.76 3.602 2.984 2.975 1.839 3.755 1.983 4.484.831.486-.767.89-1.93.899-2.585.027-2.121 2.044-2.52 4.524-.895 3.182 2.085 3.367 2.041 4.553-1.077.769-2.024 1.291-2.384 2.175-1.5.64.64 1.973 1.163 2.963 1.163 2.599 0 2.26-3.299-.7-6.818-2.538-3.016-3.193-5.636-1.647-6.591.714-.441 4.085 2.918 6.935 6.911 1.856 2.6 8.212 4.606 8.212 2.592 0-.499.88-.677 1.955-.396 2.292.6 3.659-3.117 2.639-7.179-.574-2.286-.432-2.408 1.803-1.558 2.658 1.01 6.484.848 8.436-.358 1.706-1.054.64-3.885-2.884-7.658-1.622-1.736-2.949-4.209-2.949-5.496 0-2.072.544-2.382 4.75-2.714 2.612-.206-2.45-.396-11.25-.423s-14.65.23-13 .57m48.675 6.868c.096 4.28.342 5.928.548 3.68.352-3.831.54-4.045 3.202-3.654 2.083.305 3.236-.168 4.376-1.795.851-1.216 1.315-2.817 1.031-3.558-.407-1.062 1.574-1.418 9.325-1.676 8.306-.277 7.618-.361-4.407-.538L136 54zm67.236-6.606c-.389.629-.67 2.45-.625 4.047.071 2.477-.215 2.808-1.95 2.257-1.119-.355-4.038-.345-6.488.022-8.695 1.304-7.979 9.697.798 9.353 4.312-.169 4.353-.147 5.245 2.764.447 1.458-.13 2.919-1.916 4.845-2.353 2.54-2.731 2.643-4.765 1.304-1.216-.799-2.788-3.204-3.495-5.345-1.518-4.593-3.582-6.391-7.339-6.391-1.863 0-2.945.641-3.376 2-.494 1.556-1.513 2-4.589 2-3.247 0-4.157.447-5.093 2.5-.83 1.822-1.918 2.5-4.011 2.5-1.579 0-4.395.637-6.258 1.415-1.862.778-3.609 1.192-3.882.919-1.146-1.147-4.553 1.871-5.142 4.554-.565 2.572-1.062 2.903-4.332 2.887-2.031-.011-4.889.305-6.351.702-2.107.572-2.756.338-3.134-1.128-.262-1.017-.451 6.251-.419 16.151.032 10.368.301 15.28.634 11.585.505-5.62.747-6.209 1.949-4.75 1.724 2.091 4.128 2.163 4.128.125 0-.848-.893-2.76-1.985-4.25-2.749-3.755-1.759-7.21 2.066-7.21 2.776 0 5.03 2.349 4.318 4.5-.509 1.538 2.331 4.785 3.534 4.041.587-.362 1.067-1.506 1.067-2.541s.45-2.16 1-2.5 1-1.661 1-2.937.647-2.855 1.438-3.511c1.17-.972 1.721-.646 2.963 1.756 1.703 3.293 4.183 4.719 4.91 2.824.262-.684-.408-3.173-1.489-5.532s-1.687-4.568-1.345-4.91c.341-.342 2.218-.674 4.169-.739 2.762-.091 3.773.375 4.562 2.105C170.81 94.073 177 96.411 177 93.5c0-.825.675-1.5 1.5-1.5 1.449 0 1.923-1.599 1.554-5.242-.381-3.758 4.68-9.658 7.036-8.202 1.255.775 1.145 4.181-.16 4.987-1.764 1.091-2.757 4.837-1.777 6.707.505.963 1.99 1.75 3.301 1.75 2.131 0 3.77-.647 11.046-4.359 1.1-.561 3.644-1.824 5.654-2.808 4.01-1.961 8.372-8.02 7.469-10.373-.315-.82-1.663-1.905-2.996-2.412-2.823-1.073-5.627-4.708-5.627-7.294 0-1.725.115-1.727 2.75-.035 4.078 2.618 5.167 3.495 8.253 6.649 3.192 3.264 5.491 2.738 4.543-1.039-.995-3.966-8.621-14.407-11.253-15.408-3.16-1.201-4.026-1.162-4.882.223m-106.982.978c2.567.602 4.282.567 4.95-.101.695-.695-.56-.989-3.929-.921l-4.95.101zm155.978 1.391c-.614 2.446.891 5.487 2.715 5.487.483 0 .878-1.8.878-4 0-4.622-2.542-5.674-3.593-1.487M67.215 80.366c2.675 2.77 3.404 2.658 1.831-.28C68.432 78.939 67.255 78 66.43 78c-1.113 0-.91.612.785 2.366M172 83.035c0 1.505 3.077 5.965 4.115 5.965 1.589 0 .931-2.954-1.115-5-2.242-2.242-3-2.486-3-.965m78.691 1.687c-1.545.232-3.056 1.066-3.358 1.852-.729 1.9.341 5.957 2.011 7.627 1.827 1.827 3.925 5.863 3.347 6.441-.259.259-2.658-1.609-5.331-4.151-4.313-4.101-5.254-4.564-8.36-4.113-10.96 1.592-13.02 2.544-12.968 5.994.051 3.398 2.54 5.973 5.12 5.298 1.234-.322 2.942-.057 3.796.589s1.217.78.808.297c-1.096-1.293 3.391-3.279 5.922-2.622 1.198.311 3.297 1.542 4.665 2.735 4.113 3.588 6.706 4.682 8.009 3.379.668-.668 1.286-5.853 1.5-12.592.293-9.215.098-11.427-.994-11.306-.747.082-2.622.34-4.167.572M115.3 100c0 3.025.187 4.263.416 2.75s.229-3.987 0-5.5-.416-.275-.416 2.75m-13.3 4.844c0 1.773-4.225 5.156-6.439 5.157-3.797.001-11.955 3.716-12.922 5.883-.673 1.506-1.851 2.116-4.092 2.116-1.731 0-3.632.485-4.224 1.077-1.052 1.052-.52 5.066 1.244 9.368.456 1.113-.672.392-2.635-1.684-4.225-4.469-8.727-6.459-9.58-4.235-.318.827-.337 2.425-.042 3.55.567 2.17-1.979 3.996-3.161 2.266-.357-.522-2.725-1.411-5.261-1.975-3.848-.857-4.775-.769-5.594.528-1.543 2.447.456 9.149 3.635 12.188 1.559 1.49 3.001 3.093 3.203 3.563 1.781 4.133 5.678 9.34 6.996 9.346.895.005 2.187.683 2.872 1.508 1.952 2.352 2.827 1.81 4.137-2.564 1.062-3.544 1.515-3.989 3.54-3.481 1.292.324 2.323.131 2.323-.436 0-.56.482-1.019 1.071-1.019 1.539 0 3.205-1.9 5.919-6.75 1.308-2.338 2.669-4.25 3.025-4.25s1.264 1.154 2.019 2.564c1.03 1.925 1.882 2.405 3.419 1.927 1.126-.35 2.54-.678 3.142-.73s2.052-1.491 3.221-3.198c1.997-2.914 2.04-3.39.711-7.808-.857-2.846-1.043-4.936-.472-5.289.52-.321.945-.191.945.289 0 .481 1.819 1.845 4.042 3.032 3.584 1.912 4.112 1.976 4.655.559.338-.879.094-3.036-.542-4.793-1.725-4.771-1.535-5.827.823-4.565 2.419 1.295 6.628 5.426 7.341 7.205.288.719.559-1.067.602-3.969.069-4.591-.403-5.922-3.634-10.25-2.043-2.736-4.18-4.98-4.75-4.988-.571-.007-2.05-.285-3.287-.616-1.314-.353-2.25-.155-2.25.474m110.629-.14c-.387.387-1.924.725-3.416.75-2.249.038-2.77.551-3.049 2.997-.394 3.463 1.841 5.549 5.945 5.549 5.891 0 7.784 3.092 4.141 6.764-3.04 3.063-4.189 6.598-2.775 8.532 1.736 2.375 2.753 2.178 8.756-1.699 8.8-5.684 10.307-10.866 4.248-14.61-1.937-1.197-4.691-3.709-6.119-5.582-2.447-3.208-5.987-4.445-7.731-2.701m23.556 1.182c-.936.578-.905 1.62.138 4.633 1.202 3.471 1.709 3.891 4.743 3.934 4.242.059 5.015-2.358 1.74-5.444-3.244-3.056-5.221-3.989-6.621-3.123m-42.081 6.028c-.773.49-1.119 1.604-.776 2.499.493 1.285.023 1.569-2.302 1.392-1.607-.122-5.597 1.056-8.866 2.619-5.817 2.78-5.926 2.906-5.071 5.888.481 1.676 1.265 3.304 1.743 3.618.478.313 1.451 1.695 2.163 3.07s2.617 4.188 4.234 6.25c3.492 4.455 6.36 4.796 12.271 1.459 5.172-2.92 5.786-6.838 2.067-13.185-1.412-2.409-2.567-4.653-2.567-4.987 0-.333 2.32-.298 5.155.078l5.155.684-.657-3.284c-.361-1.806-1.625-4.123-2.808-5.149-2.256-1.957-7.365-2.456-9.741-.952M.202 118.582c.181 4.109.766 6.913 1.491 7.153 1.834.605 2.743-6.269 1.291-9.773-2.186-5.277-3.092-4.424-2.782 2.62M17 119.789c0 .631-.612.913-1.36.626-2.209-.847-2.842 6.093-.924 10.115.887 1.861 2.017 3.135 2.509 2.831 1.605-.992 6.921 1.816 6.334 3.345-.3.781.147 2.758.992 4.394 1.492 2.883 1.478 2.935-.452 1.73-1.656-1.034-2.885-.872-7.314.963-2.928 1.214-6.573 2.207-8.101 2.207-2.038 0-3.23.796-4.481 2.994-.936 1.646-2.265 2.996-2.953 3C.308 151.998 0 155.57 0 166.5 0 179.984.131 181 1.865 181c1.909 0 7.021-3.445 8.407-5.665.425-.68 1.45-1.914 2.278-2.742 1.426-1.426 1.406-3.139-.094-8.23-.347-1.176-.146-2.436.445-2.802.69-.426.844-.019.428 1.137-.356.991-.313 1.502.095 1.135.408-.366 1.573.084 2.588 1 3.517 3.178 5.121 4.367 5.418 4.018 1.555-1.826 2.288-4.683 1.516-5.905-1.23-1.943-1.193-5.946.054-5.946.55 0 1 .45 1 1s1.581 1 3.513 1h3.514l-1.651-3.75c-1.91-4.337-2.551-9.024-1.338-9.773.461-.286 1.261.234 1.776 1.155.752 1.344 1.838 1.551 5.503 1.048 3.97-.544 4.647-.368 5.192 1.347C40.853 150.112 41.524 151 42 151s1.151.9 1.5 2c.853 2.688 3.221 2.539 3.968-.25a263 263 0 0 1 1.703-5.926c.931-3.112.806-4.184-.82-7-1.055-1.828-3.396-4.069-5.201-4.98-2.871-1.449-3.62-1.481-5.966-.256-5.32 2.775-10.021.747-12.509-5.397-1.577-3.893-7.675-11.364-7.675-9.402m170.352 5.204c-3.195 1.29-3.505 2.466-1.278 4.856 2.276 2.444 4.629 2.693 7.176.759 2.336-1.774 2.205-3.176-.473-5.051-2.503-1.754-2.481-1.752-5.425-.564M86.171 129c-.109 2.797.256 4 1.214 4 2.494 0 3.745-2.528 2.661-5.378-1.542-4.056-3.692-3.292-3.875 1.378m-22.588 5.645c-1.708 4.451.609 8.15 3.692 5.896 1.393-1.019 1.568-1.822.824-3.781-1.146-3.013-3.711-4.214-4.516-2.115m191.192 1.105c-.49 2.196-1.309 3.25-2.527 3.25-.992 0-2.691.608-3.775 1.351s-3.211 1.651-4.723 2.019c-2.091.508-2.75 1.269-2.75 3.174 0 2.711 2.912 4.389 8.5 4.898 1.65.15 3.338.337 3.75.416 1.176.223.874 2.38-.775 5.544-1.688 3.236-1.115 6.598 1.124 6.598 2.269 0 2.48-1.603 2.181-16.548-.175-8.725-.552-12.734-1.005-10.702M228 148.84c-2.751 1.37-3.44 2.265-3.221 4.18.396 3.463 1.543 4.259 6.422 4.455 5.664.227 8.799 1.328 8.799 3.092 0 .788.9 1.433 2 1.433s2 .45 2 1 .499 1 1.108 1c2.373 0-1.506-9.793-5.649-14.261-2.961-3.193-6.324-3.457-11.459-.899m-14.796 9.234c-.907 1.059-2.817 1.926-4.246 1.926-1.529 0-3.498 1.035-4.786 2.517-1.647 1.894-2.794 2.365-4.637 1.903-2.016-.507-2.558-.177-3.071 1.867-.49 1.955-1.457 2.616-4.544 3.11-3.473.555-3.92.945-3.92 3.415 0 1.533.54 3.328 1.2 3.988 1.455 1.455.757 1.514-2.635.225-1.411-.537-2.565-.649-2.565-.25-.001.399-2.798.845-6.218.992-7.12.306-8.295 1.054-7.381 4.695.995 3.963 5.151 5.146 9.571 2.723 3.621-1.985 6.028-1.922 6.028.158 0 .647.938 1.761 2.084 2.477s1.85 1.909 1.565 2.652c-.409 1.066.136 1.163 2.582.462 1.705-.489 4.215-.609 5.579-.267l2.479.622-2.144-2.394c-3.924-4.382-4.793-5.534-5.44-7.221-.353-.921-.206-1.674.326-1.674.533 0 .969.59.969 1.312 0 4.061 13.133 8.594 15.504 5.351.66-.902 2.805-1.758 4.766-1.902 3.492-.256 3.618-.416 6.124-7.813 2.014-5.943 2.428-8.656 1.944-12.742-.648-5.475-1.399-6.564-5.161-7.487-1.574-.386-2.856.051-3.973 1.355m1.046 11.588c-1.697.685-1.591 3.338.133 3.338.761 0 1.619-.9 1.907-2 .53-2.029.204-2.243-2.04-1.338M114 182.566c0 2.447 1.924 5.434 3.5 5.434 1.477 0 3.5 2.942 3.5 5.089 0 .758-.852.499-2.25-.684l-2.25-1.905 1.912 2.258c1.691 1.996 2.099 2.089 3.521.803.884-.801 2.724-1.901 4.088-2.445 2.337-.932 2.354-.993.302-1.053-2.24-.065-5.771-3.75-6.849-7.145-.757-2.385-5.474-2.688-5.474-.352m44.281 4.386c-1.071.999-3.823 2.133-6.115 2.52-2.291.387-4.166 1.141-4.166 1.675s-.554.629-1.232.21-.227.515 1 2.076c1.972 2.506 2.254 4.134 2.425 13.952.129 7.474.31 8.999.553 4.653.198-3.554.761-6.944 1.25-7.533.521-.629.506-1.679-.038-2.539-1.514-2.393-1.13-2.836 2.292-2.646 3.142.174 3.26.038 3.557-4.07.296-4.085.437-4.25 3.628-4.25 1.826 0 3.864.655 4.528 1.455.933 1.124 1.616 1.2 3.002.335 1.668-1.042 1.6-1.285-.946-3.427-4.5-3.787-7.471-4.522-9.738-2.411M45.336 194c0 4.125.177 5.813.392 3.75s.216-5.437 0-7.5c-.215-2.062-.392-.375-.392 3.75M53 187.393c0 .216.698.661 1.552.989.89.341 1.291.173.941-.393-.587-.951-2.493-1.406-2.493-.596m148 3.985c0 .207.787.995 1.75 1.75 1.586 1.243 1.621 1.208.378-.378-1.307-1.666-2.128-2.195-2.128-1.372M92.158 194c0 1.375.227 1.938.504 1.25.278-.687.278-1.812 0-2.5-.277-.687-.504-.125-.504 1.25m41.342 3.043c-.864 2.987-1.476 3.502-4.5 3.785-5.709.535-7.024 2.474-6.84 10.077.088 3.627.342 5.132.563 3.345.43-3.466.559-3.549 4.027-2.62 2.891.775 2.801 2.171-.373 5.782-2.052 2.335-2.736 2.632-3.453 1.5-.585-.926-.899.57-.909 4.338L122 229l-4.75.168c-4.512.16-4.557.188-.895.567 2.121.219 4.596.07 5.5-.332.905-.402 1.87-.789 2.145-.862 2.929-.771 9.286-5.134 11.013-7.56 2.206-3.097 2.38-7.975.492-13.731-.551-1.68-.347-2.25.805-2.25.849 0 1.749.787 2.001 1.75s.509-.054.573-2.259c.086-2.958-.389-4.325-1.809-5.212-1.059-.662-2.072-2.213-2.25-3.448-.27-1.866-.494-1.661-1.325 1.212M92.343 205.5c.003 4.4.179 6.076.39 3.724s.209-5.952-.006-8-.388-.124-.384 4.276m161.463-6.973c-.29.29-.116 2.428.386 4.75s1.276 7.148 1.719 10.723l.805 6.5.142-6.61c.235-10.943-1.042-17.372-3.052-15.363M7.471 199.714c-1.157.883-1.153 4.373.007 6.25.59.956.298.986-1.292.136C1.638 203.665 1 204.465 1 212.607c0 6.543.222 7.522 1.59 6.997.875-.336 2.112-.282 2.75.119 2.14 1.345 8.081 1.206 9.665-.227 1.363-1.234 2.246-1.105 6.775.993l5.207 2.413.62-2.471c1.025-4.083-.953-7.794-9.107-17.083-3.013-3.433-8.798-5.339-11.029-3.634M206.158 201c0 1.375.227 1.938.504 1.25.278-.687.278-1.812 0-2.5-.277-.687-.504-.125-.504 1.25m-35.908.534c-2.135 1.499-2.25 2.237-2.25 14.453 0 12.556-.056 12.885-2.25 13.307-2.248.433-2.247.434.094.57 1.558.09 2.515-.522 2.857-1.828.439-1.679.716-1.762 1.906-.572.766.766 1.393 2.1 1.393 2.965s.525 1.571 1.167 1.571c.641 0 .895.271.564.603s-.193 1.681.308 3c.805 2.118.631 2.397-1.496 2.397-3.219 0-4.342 3.46-1.973 6.078.963 1.064 1.429 2.256 1.036 2.649s-1.029.207-1.413-.414-2.3-1.43-4.259-1.798c-4.337-.813-5.934.514-5.934 4.934 0 1.265-.44 1.265-3.468 0-5.496-2.296-6.707-1.952-6.345 1.801l.313 3.25h27l1-6.719c.834-5.603 1.249-6.561 2.5-5.765.825.524 3.347.96 5.605.969 4.105.015 4.106.016 5.506 5.265 1.108 4.155 1.868 5.317 3.644 5.57 1.329.189 2.276-.219 2.322-1 .042-.726.307-2.22.589-3.32 1.612-6.282 1.486-8.817-.645-12.96-2.865-5.57-5.236-6.645-10.938-4.959-5.696 1.685-9.67.169-13.701-5.225-1.585-2.121-3.22-4.006-3.632-4.189-.412-.184-.75-4.582-.75-9.775 0-9.215.062-9.465 2.565-10.417 3.228-1.227 3.706-1.223 2.935.025-.34.55-.104 1 .524 1 1.597 0 .623-2.44-1.107-2.773-.779-.15-2.429.438-3.667 1.307m21.75-1.141c0 .216.698.661 1.552.989.89.341 1.291.173.941-.393-.587-.951-2.493-1.406-2.493-.596m-145.25 2.313c1.237.238 3.263.238 4.5 0 1.237-.239.225-.434-2.25-.434s-3.487.195-2.25.434M111 205.5c0 2.798-.389 3.5-1.941 3.5-1.068 0-2.173.376-2.457.836-.92 1.488.999 6.664 2.47 6.664 1.015 0 1.595 1.737 2.005 6 .416 4.316.626 2.281.75-7.25.095-7.287-.052-13.25-.327-13.25s-.5 1.575-.5 3.5m76.435-2.192c-.276.72-.372 6.682-.213 13.25l.289 11.942.494-13.252c.272-7.288.368-13.251.214-13.25-.155.001-.508.591-.784 1.31m7.837 3.692c0 2.475.195 3.488.434 2.25.238-1.238.238-3.262 0-4.5-.239-1.238-.434-.225-.434 2.25m45.192-2.597c-1.616 1.181-1.715 1.751-.696 3.987.654 1.436 1.761 2.613 2.461 2.616.699.004 2.585.692 4.192 1.529 6.41 3.343 5.43-3.494-1.094-7.625-2.579-1.633-3.231-1.701-4.863-.507m-7.666 5.133c-.295.294-2.282.632-4.417.75-3.677.203-3.864.371-3.555 3.207.404 3.706.422 3.724 3.859 3.651 7.638-.163 8.951.057 10.683 1.784 1.801 1.796 1.804 1.973.085 4.883-.981 1.66-2.834 3.497-4.118 4.082-2.847 1.297-2.979 3.214-.383 5.563 1.87 1.693 2.095 1.678 5.401-.365 1.897-1.172 3.718-2.834 4.048-3.693 1.101-2.87.616-8.994-.869-10.957-.808-1.067-1.483-2.525-1.5-3.239-.072-2.95-7.434-7.467-9.234-5.666M103.232 214c0 1.925.206 2.713.457 1.75.252-.963.252-2.537 0-3.5-.251-.963-.457-.175-.457 1.75m-55.968-1.282c1.52.229 3.77.223 5-.014s-.014-.425-2.764-.418-3.756.202-2.236.432M206.3 217c0 3.025.187 4.262.416 2.75s.229-3.988 0-5.5-.416-.275-.416 2.75m-68.048-.5c.011 2.2.216 2.982.455 1.738s.23-3.044-.02-4-.446.062-.435 2.262m-93.092 4.68c-.148 7.094-.332 7.718-2.41 8.164-1.983.426-1.953.464.25.32 2.173-.143 2.578-.753 3.1-4.664l.6-4.5.307 4.5c.17 2.475.287 5.063.262 5.75-.026.688.548 1.25 1.275 1.25 2.218 0 2.819 3.941.921 6.039-.987 1.09-1.49 2.759-1.184 3.928.464 1.772.059 2.033-3.154 2.033-2.525 0-4.134.623-5.112 1.979-1.153 1.6-2.153 1.863-5.221 1.372-3.393-.543-3.794-.382-3.794 1.521 0 1.35-.64 2.138-1.75 2.154-.962.015-3.55.878-5.75 1.919l-4 1.893 20.75.081c18.162.071 20.75-.113 20.75-1.478 0-.857.45-1.281 1-.941.559.345 1-.421 1-1.737 0-2.015.54-2.385 3.75-2.571 2.476-.143 3.289.085 2.393.671-2.262 1.479-.423 4.831 3.03 5.522 3.716.743 4.965-.139 6.792-4.795 1.795-4.577 3.58-5.136 6.636-2.08 2.618 2.618 5.399 3.299 5.399 1.323 0-.641.287-.88.637-.529.792.792 6.363-3.078 6.363-4.42 0-.54.9-2.843 2-5.12s2-5.09 2-6.252.464-2.576 1.031-3.143c.709-.709.114-.897-1.901-.601-1.985.291-3.529-.181-4.781-1.46-1.813-1.853-1.915-1.852-5.214.068-5.181 3.014-11.45 2.623-15.368-.959-1.755-1.604-2.57-2.105-1.811-1.112 1.201 1.57 1.118 2.065-.637 3.821-1.11 1.109-3.658 2.387-5.664 2.839-3.155.712-4.185.433-7.624-2.058-2.187-1.584-4.906-4.702-6.042-6.929s-2.46-3.805-2.942-3.507-1.066-.024-1.299-.715c-.335-.995-.754-.983-2.017.06-1.395 1.151-1.645.902-2.003-2-.224-1.824-.48.14-.568 4.364m46.571-5.26c-.435 1.663-.305 2.054.437 1.312.582-.582.86-1.647.62-2.369-.25-.749-.703-.295-1.057 1.057m-8.413 1.58c.137 1.358 1.002 2.053 2.692 2.164 2.087.137 2.136.087.301-.312-1.203-.261-2.415-1.235-2.692-2.163-.363-1.216-.447-1.128-.301.311m135.095.207c-.938 1.487-1.692 1.566-5.847.615l-4.77-1.091.577 2.884c.32 1.602.143 2.885-.398 2.885-.536 0-.975 1.081-.975 2.402 0 1.807-.806 2.688-3.25 3.557l-3.25 1.154 2.5 1.4c1.375.77 3.228 1.183 4.118.918 1.009-.301 2.294.564 3.412 2.293 2.466 3.817 6.28 7.276 8.022 7.276 2.644 0 1.502-3.116-3.052-8.321-2.475-2.83-4.5-5.715-4.5-6.412 0-.882 1.823-1.267 6-1.267h6l.032 3.25c.017 1.787.657 4.075 1.422 5.084 1.324 1.747 1.468 1.714 3.051-.701 1.451-2.215 1.505-3.231.424-8.06-1.84-8.222-6.738-12.27-9.516-7.866M0 227.167c0 4.887 1.096 4.467 1.658-.635.22-1.996-.056-3.532-.634-3.532C.461 223 0 224.875 0 227.167m197.226 1.412c.95.991 1.942 1.587 2.205 1.324s-.514-1.074-1.726-1.803c-2.107-1.265-2.128-1.243-.479.479m-161.413 1.104c.721.289 1.584.253 1.916-.079s-.258-.568-1.312-.525c-1.165.048-1.402.285-.604.604m105 0c.721.289 1.584.253 1.916-.079s-.258-.568-1.312-.525c-1.165.048-1.402.285-.604.604m18 0c.721.289 1.584.253 1.916-.079s-.258-.568-1.312-.525c-1.165.048-1.402.285-.604.604m19 0c.721.289 1.584.253 1.916-.079s-.258-.568-1.312-.525c-1.165.048-1.402.285-.604.604m7 0c.721.289 1.584.253 1.916-.079s-.258-.568-1.312-.525c-1.165.048-1.402.285-.604.604M65 251c0 .55.45 1 1 1s1-.45 1-1-.45-1-1-1-1 .45-1 1"/></svg>