<svg xmlns="http://www.w3.org/2000/svg" width="256" height="256"><path fill="#1976D2" fill-opacity=".016" fill-rule="evenodd" d="M0 128.004v128.004l128.25-.254 128.25-.254.254-127.75L257.008 0H0zm.485.496c0 70.4.119 99.053.265 63.672s.146-92.98 0-128S.485 58.1.485 128.5"/><path fill="#1976D2" fill-opacity=".235" fill-rule="evenodd" d="M0 128.004v128.004l128.25-.254 128.25-.254.254-127.75L257.008 0H0zm.485.496c0 70.4.119 99.053.265 63.672s.146-92.98 0-128S.485 58.1.485 128.5M121 47v11H95v10h26v82h14.978l.261-40.75.261-40.75h23.502l-.001-5.25L160 58h-24V36h-15zM80 185.88c0 12.324.118 13.12 1.943 13.12 1.57 0 2.001-.814 2.25-4.25.302-4.176.381-4.26 4.521-4.812 5.925-.791 8.286-3.233 8.286-8.57 0-5.5-2.831-7.584-11.122-8.183L80 172.76zm57.104-11.966c-1.937 1.227-.61 4.086 1.896 4.086s3.833-2.859 1.896-4.086c-.768-.486-1.621-.883-1.896-.883s-1.128.397-1.896.883m-52.706 4.491c-.296.772-.395 2.91-.218 4.75.289 3.018.606 3.323 3.241 3.124 1.607-.122 3.35-.65 3.875-1.175 1.429-1.429 1.149-6.208-.421-7.202-2.129-1.349-5.878-1.058-6.477.503m16.495 2.272c-.466 3.583.502 16.075 1.323 17.073 1.263 1.535 6.986 1.648 8.466.168.776-.776 1.668-.716 3.155.212 1.139.712 2.272 1.086 2.516.832s.202-4.624-.094-9.712c-.473-8.161-.755-9.25-2.398-9.25-1.62 0-1.861.825-1.861 6.378 0 6.748-1.305 9.091-4.702 8.445-1.466-.278-1.89-1.631-2.298-7.323-.402-5.615-.843-7.047-2.25-7.314-.963-.183-1.798.038-1.857.491m20.895.073c-.182.412-.175 4.688.014 9.5.335 8.501.414 8.75 2.771 8.75 2.312 0 2.427-.298 2.427-6.3 0-6.455 1.056-8.7 4.093-8.7 2.262 0 3.313-2.907 1.326-3.669-.85-.327-2.711-.063-4.135.585-1.804.823-2.906.862-3.636.132-1.23-1.23-2.396-1.352-2.86-.298m13.501.94c-.362.944-.128 1.864.531 2.083.765.255 1.18 3.001 1.18 7.81 0 7.245.058 7.417 2.5 7.417 2.466 0 2.5-.113 2.5-8.3 0-5.122-.459-8.759-1.2-9.5-1.74-1.74-4.759-1.471-5.511.49m12.378-1.023c-.834.833-.883 14.607-.06 16.751.334.87 1.459 1.582 2.5 1.582 1.659 0 1.893-.787 1.893-6.378 0-6.677 1.487-9.416 4.487-8.265 1.152.442 1.513 2.258 1.513 7.612 0 6.833.07 7.031 2.5 7.031 2.426 0 2.5-.204 2.5-6.933 0-6.138.238-7.008 2.075-7.591 1.142-.362 2.366-.368 2.721-.014.354.355.823 3.796 1.04 7.646.362 6.402.572 6.975 2.46 6.696 1.886-.278 2.045-.909 1.838-7.304-.125-3.85-.461-7.786-.747-8.748-.684-2.297-4.903-3.294-7.988-1.888-1.847.842-2.937.817-4.405-.1-1.489-.929-2.667-.948-4.968-.08-1.765.666-3.251.761-3.581.228-.658-1.065-2.818-1.205-3.778-.245"/><path fill="#1976D2" fill-opacity=".708" fill-rule="evenodd" d="M0 128.004v128.004l128.25-.254 128.25-.254.254-127.75L257.008 0H0zm.485.496c0 70.4.119 99.053.265 63.672s.146-92.98 0-128S.485 58.1.485 128.5m121.182-92.833c-.367.366-.667 5.303-.667 10.971v10.304l-13.25.279-13.25.279-.3 5.75-.3 5.75H121v81h16V69.063l11.75-.281 11.75-.282v-11h-23.501V46.886L137 36.272l-4.64-.636c-5.977-.819-9.854-.808-10.693.031M79.221 186.25l.279 13.25H82c2.214 0 2.534-.472 2.802-4.13.29-3.981.447-4.154 4.318-4.773 7.202-1.152 10.579-6.775 7.77-12.94-1.522-3.34-4.906-4.657-11.966-4.657h-5.982zm57.446-12.583c-1.376 1.375-.595 4.221 1.324 4.83 2.703.858 4.009-.137 4.009-3.056 0-1.891-.526-2.441-2.333-2.441-1.284 0-2.634.3-3 .667M85 181.5c0 4.029.241 4.5 2.3 4.5 5.018 0 6.692-6.292 2.135-8.025C85.375 176.432 85 176.73 85 181.5m14.924-.816c-.371 3.994.421 15.092 1.179 16.508 1.265 2.365 4.821 3.168 8.252 1.863 1.837-.698 3.394-.724 4.605-.076 2.906 1.555 3.6-.645 3.231-10.229l-.338-8.75H111v6.893c0 5.363-.351 7.028-1.582 7.5-3.013 1.156-3.332.573-3.624-6.643-.287-7.082-.358-7.257-3.044-7.566-1.513-.174-2.784.051-2.826.5m20.727.784c-.31.807-.133 1.734.393 2.059s.956 3.891.956 7.925c0 4.955.405 7.483 1.25 7.794 2.838 1.043 3.75-.467 3.75-6.207 0-5.961.857-7.522 4.5-8.192 1.161-.213 2.134-1.307 2.32-2.607.27-1.895-.145-2.24-2.691-2.24-1.656 0-3.313.489-3.683 1.087-.484.783-.976.783-1.759 0-1.555-1.555-4.375-1.342-5.036.381M135 182c0 1.1.45 2 1 2 .578 0 1 3.167 1 7.5v7.5h6v-7.566c0-9.135-1.012-11.434-5.035-11.434-2.298 0-2.965.45-2.965 2m12 7.609V199h3.107c2.516 0 2.983-.324 2.453-1.703-.359-.937-.355-4.087.009-7 .52-4.161 1.043-5.297 2.439-5.297 2.312 0 2.992 1.951 2.992 8.582 0 5.113.141 5.418 2.5 5.418 2.409 0 2.5-.236 2.5-6.465 0-5.29.34-6.646 1.869-7.465 2.68-1.434 3.131-.501 3.131 6.474 0 6.548 1.373 9.018 4.373 7.866 1.279-.49 1.624-2.045 1.612-7.267-.008-3.654-.583-7.768-1.279-9.143-1.238-2.448-1.516-2.503-13.485-2.641L147 180.218z"/><path fill="#1976D2" fill-opacity=".286" fill-rule="evenodd" d="M209.97 2.422c1.994 5.243 8.189 12.562 11.37 13.432 3.162.864 8.325-.501 11.333-2.998 1.982-1.645 1.607-5.452-.923-9.358L229.5.025 219.275.012 209.05 0zM.005 7.633c-.004 6.404.209 7.19 2.091 7.682 6.321 1.653 6.552-4.558.44-11.815L.01.5zM222 2.966c-3.731.932-3.535 5.415.256 5.851 3.111.358 4.552-1.813 3.122-4.701-.639-1.291-1.559-1.604-3.378-1.15m-28.326 2.255c-2.105.558-4.05 1.595-4.323 2.306-.825 2.15 2.505 7.473 4.675 7.473 1.636 0 1.974.684 1.974 4 0 2.2-.338 3.999-.75 3.998s-2.021-2.014-3.575-4.474c-2.648-4.191-6.665-6.496-11.358-6.518-1.49-.007-2.687 3.586-1.718 5.155.498.805.182.969-.998.516-.95-.365-4.678-.104-8.284.58-5.197.985-6.729 1.698-7.391 3.438-.717 1.885-1.355 2.11-4.53 1.594-3.959-.642-6.396 1.21-6.396 4.863 0 2.551 3.941 5.848 6.989 5.848 1.436 0 3.17.559 3.853 1.242 1.643 1.643 3.275-.733 2.915-4.242-.201-1.956.254-2.572 2.095-2.833 1.293-.183 3.431-.062 4.75.269 3.041.763 3.225 4.505.349 7.108-1.393 1.261-1.953 2.826-1.75 4.897.394 4.007 2.838 4.394 7.12 1.128 3.413-2.604 8.05-3.396 9.179-1.569.78 1.263 4.5 1.318 4.5.067 0-.513.86-1.205 1.911-1.539 2.694-.855 5.212-5.088 5.416-9.106.095-1.877.301-3.415.458-3.418.157-.002 1.418.738 2.802 1.645 1.754 1.149 2.833 1.331 3.564.6 1.452-1.452.352-4.326-3.167-8.267C198.517 16.099 198.172 14 201 14c1.1 0 2 .45 2 1s.675 1 1.5 1 1.5.605 1.5 1.345c0 1.659 3.192 4.655 4.96 4.655 2.209 0 .593-7.071-2.922-12.783-2.96-4.812-3.494-5.209-6.874-5.114-2.015.057-5.386.56-7.49 1.118M179 21.775c0 2.524 5.988 10.115 8 10.142.825.011 2.285-1.059 3.244-2.378 1.703-2.343 1.673-2.468-1.327-5.469-1.689-1.688-3.599-3.076-4.244-3.084-.645-.007-2.185-.285-3.423-.616-1.787-.479-2.25-.19-2.25 1.405m-36.163 11.141c-.206 2.154-.028 3.702.395 3.441.422-.261.768.002.768.584 0 1.496-5.727 1.323-6.338-.191-.277-.687-.54 3.587-.583 9.5L137 57l10.75-.196c7.523-.137 8.785-.299 4.204-.541-6.207-.327-6.604-.498-7.663-3.304-1.302-3.45-1.212-3.476 4.455-1.312 3.382 1.292 4.842 1.406 6.764.531 2.852-1.3 2.506-3.413-1.141-6.958-2.942-2.859-3.771-6.033-2.47-9.455.914-2.402.692-2.855-2.312-4.711-4.963-3.067-6.316-2.694-6.75 1.862m103.409 1.238C245.56 34.84 245 37.11 245 39.2c0 4.147-.511 4.484-3.441 2.268-2.371-1.793-6.556-1.932-6.568-.218-.004.688-2.817 2.107-6.25 3.154-12.159 3.708-13.741 4.567-13.74 7.455 0 2.024 1.865 4.346 7.986 9.945l7.985 7.303 3.541-1.68c7.051-3.346 9.504-9.795 5.487-14.427-1.1-1.268-2-2.957-2-3.752 0-1.149.704-1.03 3.427.576 4.965 2.93 11.613 2.34 13.368-1.185.995-1.997 1.029-3.099.147-4.747-.87-1.627-.863-2.323.029-2.874.648-.4 1.031-2.256.853-4.123-.304-3.182-.575-3.414-4.328-3.691-2.249-.165-4.551.251-5.25.95m-117.996.562c1.512.229 3.988.229 5.5 0s.275-.416-2.75-.416-4.263.187-2.75.416m-12.75 8.698c-2.2.632-3.888 1.473-3.75 1.868s.25 1.299.25 2.01 1.574 2.96 3.498 5L118.996 56h-5.998c-4.358 0-5.998-.368-5.998-1.345 0-1.651-3.189-4.655-4.942-4.655-.859 0-1.139.995-.845 3 .423 2.88.29 3-3.327 3-2.072 0-4.034-.43-4.359-.956s-1.275-.694-2.111-.374c-1.065.409-1.343 1.387-.929 3.271.588 2.675.564 2.687-5.198 2.682-6.895-.005-13.507 1.262-14.516 2.782-.4.602-.482 1.882-.183 2.845.578 1.857-1.046 2.439-2.09.75-.34-.55-2.134-1-3.986-1-2.402 0-3.933.717-5.335 2.5-1.329 1.689-2.955 2.5-5.014 2.5-1.676 0-3.33.457-3.675 1.016-.346.559-1.046.758-1.557.443C47.637 71.657 42 75.145 42 76.748 42 79.488 44.961 85 46.433 85c.845 0 3.005 1.366 4.801 3.035l3.266 3.034-2.25 1.588c-1.237.873-2.25 2.432-2.25 3.465 0 2.341-3.133 2.492-6.46.312C41.038 94.795 39 90.3 39 86.422 39 83.488 36.493 81 33.536 81c-2.409 0-4.169 2.491-2.492 3.527.526.325.956 1.523.956 2.663 0 1.835-.428 2.002-3.742 1.464-2.058-.334-3.896-1.067-4.083-1.63S23.02 86 22.025 86c-2.296 0-3.267 3.67-2.072 7.835.555 1.936.546 3.165-.023 3.165a.93.93 0 0 1-.93-.922c0-1.552-6.907-3.324-9.803-2.515-3.418.956-4.188 1.098-6.947 1.285-2.078.14-2.249.629-2.24 6.402l.01 6.25 4.073 1.711c2.24.941 3.816 2.128 3.501 2.637s.098 1.481.917 2.161S10 115.895 10 116.69c0 .99.63 1.245 2 .81 1.147-.364 2-.18 2 .433 0 1.281 1.015 1.343 2.859.175 1.806-1.144.571-9.108-1.412-9.108-.757 0-1.895-.968-2.528-2.151-1.143-2.136-1.129-2.135 2.044.125 1.758 1.251 3.443 2.92 3.745 3.708s1.13 1.21 1.838.939c.709-.272 1.544.171 1.856.985.414 1.079 1.05 1.222 2.344.53.976-.523 3.003-.715 4.504-.428 2.204.421 2.898.067 3.602-1.838.52-1.403.477-3.497-.105-5.166-1.22-3.499-.851-3.873 2.819-2.859 1.614.447 4.722.773 6.908.727 3.13-.067 4.223-.586 5.15-2.445l1.177-2.361 1.714 2.617c2.167 3.307 3.714 3.297 7.059-.048 2.389-2.389 2.604-3.181 2.077-7.634-.403-3.4-1.23-5.418-2.62-6.392-2.279-1.596-2.675-3.92-.781-4.574 1.465-.506 5.75 1.241 5.75 2.344 0 .417 1.621 1.76 3.602 2.984 2.975 1.839 3.755 1.983 4.484.831.486-.767.89-1.93.899-2.585.027-2.121 2.044-2.52 4.524-.895 3.182 2.085 3.367 2.041 4.553-1.077.769-2.024 1.291-2.384 2.175-1.5.64.64 1.973 1.163 2.963 1.163 2.599 0 2.26-3.299-.7-6.818-2.538-3.016-3.193-5.636-1.647-6.591.714-.441 4.085 2.918 6.935 6.911C91.679 80.152 98 82.099 98 80.031c0-.532.72-.692 1.601-.354 2.989 1.147 4.809-5.867 2.199-8.477-.933-.933-.6-1.2 1.5-1.2 1.485 0 2.7.446 2.7.992 0 1.164 4.432.722 8-.799 1.978-.844.151-1.079-8.75-1.13L94 69V57h26.697l.202-6.91c.111-3.8-.159-7.116-.599-7.368s-2.6.059-4.8.692m111.484 11.105c-1.031 1.243-.934 1.878.533 3.5 2.187 2.416 7.483 2.71 7.483.415 0-4.742-5.215-7.29-8.016-3.915m-23.573.625c-.389.629-.67 2.45-.625 4.047.071 2.477-.215 2.808-1.95 2.257-1.119-.355-4.038-.345-6.488.022-8.695 1.304-7.979 9.697.798 9.353 4.312-.169 4.353-.147 5.245 2.764.447 1.458-.13 2.919-1.916 4.845-2.353 2.54-2.731 2.643-4.765 1.304-1.216-.799-2.788-3.204-3.495-5.345-1.518-4.593-3.582-6.391-7.339-6.391-1.863 0-2.945.641-3.376 2-.494 1.556-1.513 2-4.589 2-3.247 0-4.157.447-5.093 2.5-.83 1.822-1.918 2.5-4.011 2.5-1.579 0-4.395.637-6.258 1.415-1.862.778-3.609 1.192-3.882.919-1.146-1.147-4.553 1.871-5.142 4.554-.567 2.581-1.051 2.899-4.332 2.853-2.031-.029-4.687.291-5.903.709-2.155.743-2.217.545-2.544-8.094-.184-4.871-.343 3.294-.354 18.144s.234 23.175.544 18.5c.326-4.918.867-7.762 1.283-6.75.973 2.371 3.781 2.23 3.781-.191 0-1.068-.453-2.221-1.007-2.563s-1.716-1.994-2.583-3.669c-.866-1.676-1.088-2.746-.493-2.378.6.371 1.083-.026 1.083-.89 0-2.24 5.661-2.082 6.83.191.495.963.751 2.2.569 2.75-.509 1.538 2.331 4.785 3.534 4.041.587-.362 1.067-1.506 1.067-2.541s.45-2.16 1-2.5 1-1.661 1-2.937.647-2.855 1.438-3.511c1.17-.972 1.721-.646 2.963 1.756 1.703 3.293 4.183 4.719 4.91 2.824.262-.684-.408-3.173-1.489-5.532s-1.687-4.568-1.345-4.91c.341-.342 2.218-.674 4.169-.739 2.762-.091 3.773.375 4.562 2.105C170.81 94.073 177 96.411 177 93.5c0-.825.675-1.5 1.5-1.5 1.449 0 1.923-1.599 1.554-5.242-.381-3.758 4.68-9.658 7.036-8.202 1.255.775 1.145 4.181-.16 4.987-1.764 1.091-2.757 4.837-1.777 6.707.505.963 1.99 1.75 3.301 1.75 2.131 0 3.77-.647 11.046-4.359 1.1-.561 3.644-1.824 5.654-2.808 4.01-1.961 8.372-8.02 7.469-10.373-.315-.82-1.663-1.905-2.996-2.412-2.823-1.073-5.627-4.708-5.627-7.294 0-1.725.115-1.727 2.75-.035 4.078 2.618 5.167 3.495 8.253 6.649 3.192 3.264 5.491 2.738 4.543-1.039-.995-3.966-8.621-14.407-11.253-15.408-3.16-1.201-4.026-1.162-4.882.223m48.996 2.369c-.614 2.446.891 5.487 2.715 5.487.483 0 .878-1.8.878-4 0-4.622-2.542-5.674-3.593-1.487M67.215 80.366c2.675 2.77 3.404 2.658 1.831-.28C68.432 78.939 67.255 78 66.43 78c-1.113 0-.91.612.785 2.366M172 83.035c0 1.505 3.077 5.965 4.115 5.965 1.589 0 .931-2.954-1.115-5-2.242-2.242-3-2.486-3-.965m78.691 1.687c-1.545.232-3.056 1.066-3.358 1.852-.729 1.9.341 5.957 2.011 7.627 1.827 1.827 3.925 5.863 3.347 6.441-.259.259-2.658-1.609-5.331-4.151-4.313-4.101-5.254-4.564-8.36-4.113-10.96 1.592-13.02 2.544-12.968 5.994.051 3.398 2.54 5.973 5.12 5.298 1.234-.322 2.942-.057 3.796.589s1.217.78.808.297c-1.096-1.293 3.391-3.279 5.922-2.622 1.198.311 3.297 1.542 4.665 2.735 4.113 3.588 6.706 4.682 8.009 3.379.668-.668 1.286-5.853 1.5-12.592.293-9.215.098-11.427-.994-11.306-.747.082-2.622.34-4.167.572m-135.33 12.78c-1.252 3.261 2.599 11.259 4.773 9.915.989-.611 1.17-7.461.259-9.835-.771-2.009-4.271-2.064-5.032-.08M102 104.844c0 1.773-4.225 5.156-6.439 5.157-3.797.001-11.955 3.716-12.922 5.883-.673 1.506-1.851 2.116-4.092 2.116-1.731 0-3.632.485-4.224 1.077-1.052 1.052-.52 5.066 1.244 9.368.456 1.113-.672.392-2.635-1.684-4.225-4.469-8.727-6.459-9.58-4.235-.318.827-.337 2.425-.042 3.55.567 2.17-1.979 3.996-3.161 2.266-.357-.522-2.725-1.411-5.261-1.975-3.848-.857-4.775-.769-5.594.528-1.543 2.447.456 9.149 3.635 12.188 1.559 1.49 3.001 3.093 3.203 3.563 1.781 4.133 5.678 9.34 6.996 9.346.895.005 2.187.683 2.872 1.508 1.952 2.352 2.827 1.81 4.137-2.564 1.062-3.544 1.515-3.989 3.54-3.481 1.292.324 2.323.131 2.323-.436 0-.56.482-1.019 1.071-1.019 1.539 0 3.205-1.9 5.919-6.75 1.308-2.338 2.669-4.25 3.025-4.25s1.264 1.154 2.019 2.564c1.03 1.925 1.882 2.405 3.419 1.927 1.126-.35 2.54-.678 3.142-.73s2.052-1.491 3.221-3.198c1.997-2.914 2.04-3.39.711-7.808-.857-2.846-1.043-4.936-.472-5.289.52-.321.945-.191.945.289 0 .481 1.819 1.845 4.042 3.032 3.584 1.912 4.112 1.976 4.655.559.338-.879.094-3.036-.542-4.793-.635-1.757-1.155-3.741-1.155-4.409 0-1.855 3.667.408 7.22 4.453 3.406 3.881 6.78 4.542 6.78 1.33 0-2.355-10.78-17.92-12.425-17.941-.591-.007-2.088-.285-3.325-.616-1.314-.353-2.25-.155-2.25.474m110.629-.14c-.387.387-1.924.725-3.416.75-2.249.038-2.77.551-3.049 2.997-.394 3.463 1.841 5.549 5.945 5.549 5.891 0 7.784 3.092 4.141 6.764-3.04 3.063-4.189 6.598-2.775 8.532 1.736 2.375 2.753 2.178 8.756-1.699 8.8-5.684 10.307-10.866 4.248-14.61-1.937-1.197-4.691-3.709-6.119-5.582-2.447-3.208-5.987-4.445-7.731-2.701m23.556 1.182c-.936.578-.905 1.62.138 4.633 1.202 3.471 1.709 3.891 4.743 3.934 4.242.059 5.015-2.358 1.74-5.444-3.244-3.056-5.221-3.989-6.621-3.123m-42.081 6.028c-.773.49-1.119 1.604-.776 2.499.493 1.285.023 1.569-2.302 1.392-1.607-.122-5.597 1.056-8.866 2.619-5.817 2.78-5.926 2.906-5.071 5.888.481 1.676 1.265 3.304 1.743 3.618.478.313 1.451 1.695 2.163 3.07s2.617 4.188 4.234 6.25c3.492 4.455 6.36 4.796 12.271 1.459 5.172-2.92 5.786-6.838 2.067-13.185-1.412-2.409-2.567-4.653-2.567-4.987 0-.333 2.32-.298 5.155.078l5.155.684-.657-3.284c-.361-1.806-1.625-4.123-2.808-5.149-2.256-1.957-7.365-2.456-9.741-.952M.202 118.582c.181 4.109.766 6.913 1.491 7.153 1.834.605 2.743-6.269 1.291-9.773-2.186-5.277-3.092-4.424-2.782 2.62M17 119.789c0 .631-.612.913-1.36.626-2.209-.847-2.842 6.093-.924 10.115.887 1.861 2.017 3.135 2.509 2.831 1.605-.992 6.921 1.816 6.334 3.345-.3.781.147 2.758.992 4.394 1.492 2.883 1.478 2.935-.452 1.73-1.656-1.034-2.885-.872-7.314.963-2.928 1.214-6.573 2.207-8.101 2.207-2.038 0-3.23.796-4.481 2.994-.936 1.646-2.265 2.996-2.953 3C.308 151.998 0 155.57 0 166.5 0 179.984.131 181 1.865 181c1.909 0 7.021-3.445 8.407-5.665.425-.68 1.45-1.914 2.278-2.742 1.426-1.426 1.406-3.139-.094-8.23-.347-1.176-.146-2.436.445-2.802.69-.426.844-.019.428 1.137-.356.991-.313 1.502.095 1.135.408-.366 1.573.084 2.588 1 3.517 3.178 5.121 4.367 5.418 4.018 1.555-1.826 2.288-4.683 1.516-5.905-1.23-1.943-1.193-5.946.054-5.946.55 0 1 .45 1 1s1.581 1 3.513 1h3.514l-1.651-3.75c-1.91-4.337-2.551-9.024-1.338-9.773.461-.286 1.261.234 1.776 1.155.752 1.344 1.838 1.551 5.503 1.048 3.97-.544 4.647-.368 5.192 1.347C40.853 150.112 41.524 151 42 151s1.151.9 1.5 2c.853 2.688 3.221 2.539 3.968-.25a263 263 0 0 1 1.703-5.926c.931-3.112.806-4.184-.82-7-1.055-1.828-3.396-4.069-5.201-4.98-2.871-1.449-3.62-1.481-5.966-.256-5.32 2.775-10.021.747-12.509-5.397-1.577-3.893-7.675-11.364-7.675-9.402m170.352 5.204c-3.195 1.29-3.505 2.466-1.278 4.856 2.276 2.444 4.629 2.693 7.176.759 2.336-1.774 2.205-3.176-.473-5.051-2.503-1.754-2.481-1.752-5.425-.564M86.171 129c-.109 2.797.256 4 1.214 4 2.494 0 3.745-2.528 2.661-5.378-1.542-4.056-3.692-3.292-3.875 1.378m50.987 1c0 1.375.227 1.938.504 1.25.278-.687.278-1.812 0-2.5-.277-.687-.504-.125-.504 1.25m-73.575 4.645c-1.708 4.451.609 8.15 3.692 5.896 1.393-1.019 1.568-1.822.824-3.781-1.146-3.013-3.711-4.214-4.516-2.115m191.192 1.105c-.49 2.196-1.309 3.25-2.527 3.25-.992 0-2.691.608-3.775 1.351s-3.211 1.651-4.723 2.019c-2.091.508-2.75 1.269-2.75 3.174 0 2.711 2.912 4.389 8.5 4.898 1.65.15 3.338.337 3.75.416 1.176.223.874 2.38-.775 5.544-1.688 3.236-1.115 6.598 1.124 6.598 2.269 0 2.48-1.603 2.181-16.548-.175-8.725-.552-12.734-1.005-10.702m-117.489 6.75c.008 2.75.202 3.756.432 2.236s.223-3.77-.014-5-.425.014-.418 2.764M228 148.84c-2.751 1.37-3.44 2.265-3.221 4.18.396 3.463 1.543 4.259 6.422 4.455 5.664.227 8.799 1.328 8.799 3.092 0 .788.9 1.433 2 1.433s2 .45 2 1 .499 1 1.108 1c2.373 0-1.506-9.793-5.649-14.261-2.961-3.193-6.324-3.457-11.459-.899m-14.796 9.234c-.907 1.059-2.817 1.926-4.246 1.926-1.529 0-3.498 1.035-4.786 2.517-1.647 1.894-2.794 2.365-4.637 1.903-2.016-.507-2.558-.177-3.071 1.867-.49 1.955-1.457 2.616-4.544 3.11-3.473.555-3.92.945-3.92 3.415 0 1.533.54 3.328 1.2 3.988 1.455 1.455.757 1.514-2.635.225-1.411-.537-2.565-.649-2.565-.25-.001.399-2.753.843-6.117.988-7.557.324-8.603.918-5.958 3.381 1.686 1.571 2.11 3.287 2.264 9.145.185 7.037.198 7.072.551 1.433.199-3.177.762-5.53 1.251-5.228s2.325-.323 4.079-1.391c3.078-1.871 5.93-1.862 5.93.018 0 .499 1.463 2.238 3.25 3.864 3.232 2.94 7.087 3.898 8.232 2.044.704-1.139-2.137-7.029-3.391-7.029-.472 0-1.093-.9-1.381-2-.287-1.1-.115-2 .384-2 .498 0 .906.59.906 1.312 0 4.061 13.133 8.594 15.504 5.351.66-.902 2.805-1.758 4.766-1.902 3.492-.256 3.618-.416 6.124-7.813 2.014-5.943 2.428-8.656 1.944-12.742-.648-5.475-1.399-6.564-5.161-7.487-1.574-.386-2.856.051-3.973 1.355m1.046 11.588c-1.697.685-1.591 3.338.133 3.338.761 0 1.619-.9 1.907-2 .53-2.029.204-2.243-2.04-1.338M78.365 183.5c.003 5.5.171 7.622.373 4.716.203-2.905.201-7.405-.004-10s-.371-.216-.369 5.284m19.83-2c.02 1.65.244 2.204.498 1.231s.237-2.323-.037-3-.481.119-.461 1.769m11.794 5.205c-.269 3.962-.128 6.842.313 6.398.44-.443.66-3.685.488-7.205l-.313-6.398zm7.206.295c.051 5.655.24 6.639.768 4l.7-3.5 1.105 2.5c1.01 2.285 1.111 2.097 1.169-2.191.034-2.58-.457-5.012-1.092-5.404-.715-.443-.883-.275-.44.44.392.635.447 1.155.122 1.155s-.998-1.012-1.496-2.25c-.652-1.623-.885-.16-.836 5.25m-10.875 1c0 3.575.182 5.037.403 3.25s.222-4.713 0-6.5c-.221-1.787-.403-.325-.403 3.25m49.881-1.25c-.238 2.667-1.861 2.99-2.512.5-.251-.963-.509 1.512-.573 5.5L153 200h-3c-2.933 0-3.003-.117-3.15-5.25-.082-2.887-.337-4.012-.566-2.5-.576 3.8-2.248 3.458-2.447-.5-.101-2.015-.386-1.161-.75 2.25-.543 5.087-.794 5.524-3.337 5.816-1.764.203-2.754-.155-2.761-1-.007-.724-1.786-2.166-3.954-3.204s-4.135-2.614-4.372-3.5-.483.525-.547 3.138c-.108 4.422-.296 4.75-2.722 4.75-2.865 0-10.394 5.405-10.394 7.462 0 2.233 3.001 3.908 7.33 4.091 6.339.267 6.672.353 6.638 1.697-.017.688-1.13 2.499-2.474 4.026-3.233 3.674-6.586 2.901-9.129-2.106-2.474-4.868-4.257-6.21-7.865-5.915-2.696.22-2.967.549-2.673 3.242.359 3.298 3.177 6.503 5.718 6.503.896 0 2.107 1.266 2.691 2.813s2.755 3.788 4.824 4.979l3.763 2.166 4.577-2.558c4.884-2.729 8.884-7.453 9.177-10.834.098-1.136-.441-3.583-1.199-5.438-1.962-4.802-1.887-4.905 3.372-4.587 2.613.157 5.507.325 6.433.373.925.047 1.968.986 2.317 2.086 1.215 3.828 2.635 1.845 3.937-5.5.098-.55.545-1.807.994-2.793.754-1.657.952-1.67 2.604-.175 1.088.985 2.899 1.452 4.627 1.193 2.785-.417 2.778-.428-.37-.575l-3.208-.15-.341-7.75c-.187-4.262-.431-6.738-.542-5.5m7.984-.886c-.85.539-1.203 2.391-1 5.235.248 3.465.672 4.342 1.992 4.124 1.07-.177 1.794.51 2 1.898.178 1.196.998 2.506 1.823 2.911 7.677 3.768 8.289 3.788 7.361.241-.481-1.841-.886-1.991-2.896-1.075-4.243 1.933-5.463.504-5.48-6.417-.01-3.813-.348-5.757-.861-4.947-.686 1.082-.956 1.047-1.429-.186-.32-.835-.045-1.737.611-2.004.657-.268.744-.515.194-.55s-1.592.312-2.315.77M78.158 197c0 1.375.227 1.938.504 1.25.278-.687.278-1.812 0-2.5-.277-.687-.504-.125-.504 1.25m175.648 1.527c-.29.29-.116 2.428.386 4.75s1.276 7.148 1.719 10.723l.805 6.5.142-6.61c.235-10.943-1.042-17.372-3.052-15.363M7.471 199.714c-1.157.883-1.153 4.373.007 6.25.59.956.298.986-1.292.136C1.638 203.665 1 204.465 1 212.607c0 6.543.222 7.522 1.59 6.997.875-.336 2.112-.282 2.75.119 2.14 1.345 8.081 1.206 9.665-.227 1.363-1.234 2.246-1.105 6.775.993l5.207 2.413.62-2.471c1.025-4.083-.953-7.794-9.107-17.083-3.013-3.433-8.798-5.339-11.029-3.634m73.279.948c.688.278 1.813.278 2.5 0 .688-.277.125-.504-1.25-.504s-1.937.227-1.25.504m24 0c.688.278 1.813.278 2.5 0 .688-.277.125-.504-1.25-.504s-1.937.227-1.25.504m92.25 2.221c0 2.084 1.287 4.117 2.607 4.117 2.095 0 1.674-2.779-.607-4-1.186-.635-2-.683-2-.117m43.464 1.52c-1.616 1.181-1.715 1.751-.696 3.987.654 1.436 1.761 2.613 2.461 2.616.699.004 2.585.692 4.192 1.529 6.41 3.343 5.43-3.494-1.094-7.625-2.579-1.633-3.231-1.701-4.863-.507m-7.666 5.133c-.295.294-2.282.632-4.417.75-3.677.203-3.864.371-3.555 3.207.404 3.706.422 3.724 3.859 3.651 7.638-.163 8.951.057 10.683 1.784 1.801 1.796 1.804 1.973.085 4.883-.981 1.66-2.834 3.497-4.118 4.082-2.847 1.297-2.979 3.214-.383 5.563 1.87 1.693 2.095 1.678 5.401-.365 1.897-1.172 3.718-2.834 4.048-3.693 1.101-2.87.616-8.994-.869-10.957-.808-1.067-1.483-2.525-1.5-3.239-.072-2.95-7.434-7.467-9.234-5.666m-14.385 8.171c-.937 1.486-1.693 1.566-5.841.617l-4.765-1.091.423 2.884c.402 2.735.233 2.883-3.281 2.883-4.199 0-6.112 1.66-5.336 4.629.639 2.442 5.639 5.595 7.649 4.824.874-.335 2.155.55 3.252 2.247 2.481 3.838 6.292 7.3 8.038 7.3 2.644 0 1.502-3.116-3.052-8.321-2.475-2.83-4.5-5.715-4.5-6.412 0-.882 1.823-1.267 6-1.267h6l.032 3.25c.017 1.787.657 4.075 1.422 5.084 1.324 1.747 1.468 1.714 3.051-.701 1.451-2.215 1.505-3.231.424-8.06-1.84-8.222-6.738-12.27-9.516-7.866M93 218.5c0 1.101-1.144 1.5-4.3 1.5-4.488 0-6.878 1.372-6.068 3.482.302.787-.818 1.449-3.071 1.814-2.064.335-4.491 1.67-5.804 3.192-1.241 1.439-3.943 2.995-6.003 3.458-3.271.735-4.252.476-7.723-2.039-2.187-1.584-4.906-4.702-6.042-6.929s-2.46-3.805-2.942-3.507-1.039.053-1.238-.545c-.259-.776-1.07-.764-2.836.04-2.416 1.101-2.641 2.016-2.098 8.534.069.825.848 1.5 1.732 1.5 1.018 0 1.396.55 1.031 1.5-.343.894-.009 1.5.826 1.5 2.284 0 2.931 3.906 1.001 6.039-.987 1.09-1.49 2.759-1.184 3.928.464 1.772.059 2.033-3.154 2.033-2.525 0-4.134.623-5.112 1.979-1.153 1.6-2.153 1.863-5.221 1.372-3.393-.543-3.794-.382-3.794 1.521 0 1.35-.64 2.138-1.75 2.154-.962.015-3.55.878-5.75 1.919l-4 1.893 20.75.081c18.162.071 20.75-.113 20.75-1.478 0-.857.45-1.281 1-.941.559.345 1-.421 1-1.737 0-2.015.54-2.385 3.75-2.571 2.476-.143 3.289.085 2.393.671-2.262 1.479-.423 4.831 3.03 5.522 3.716.743 4.965-.139 6.792-4.795 1.795-4.577 3.58-5.136 6.636-2.08 2.618 2.618 5.399 3.299 5.399 1.323 0-.641.287-.88.637-.529.792.792 6.363-3.078 6.363-4.42 0-.54.916-2.871 2.036-5.182s2.307-6.763 2.637-9.893c.567-5.378.431-5.859-2.46-8.75C96.976 216.822 93 215.963 93 218.5m73.763 2.712c-.871 2.612.51 5.64 2.838 6.224 1.522.382 2.399 1.326 2.399 2.583 0 1.09.525 1.981 1.167 1.981.641 0 .895.271.564.603s-.193 1.681.308 3c.805 2.118.631 2.397-1.496 2.397-3.219 0-4.342 3.46-1.973 6.078.963 1.064 1.429 2.256 1.036 2.649s-1.029.207-1.413-.414-2.3-1.43-4.259-1.798c-2.729-.512-3.898-.263-4.998 1.062-.79.952-1.323 1.886-1.186 2.077.137.19.25.998.25 1.795 0 1.265-.44 1.265-3.468 0-5.496-2.296-6.707-1.952-6.345 1.801l.313 3.25h27l1-6.719c.834-5.603 1.249-6.561 2.5-5.765.825.524 3.347.96 5.605.969 4.105.015 4.106.016 5.506 5.265 1.108 4.155 1.868 5.317 3.644 5.57 1.329.189 2.276-.219 2.322-1 .042-.726.307-2.22.589-3.32 1.612-6.282 1.486-8.817-.645-12.96-2.87-5.578-5.234-6.645-10.969-4.949-3.864 1.142-4.898 1.101-7.877-.312-1.886-.895-4.989-3.799-6.896-6.453-3.543-4.932-4.802-5.757-5.516-3.614M0 227.167c0 4.887 1.096 4.467 1.658-.635.22-1.996-.056-3.532-.634-3.532C.461 223 0 224.875 0 227.167M65 251c0 .55.45 1 1 1s1-.45 1-1-.45-1-1-1-1 .45-1 1"/></svg>